<svg width="27" height="27" viewBox="0 0 27 27" fill="none" xmlns="http://www.w3.org/2000/svg">
<rect x="1.02952" y="0.801002" width="25.5011" height="25.5011" rx="7.47446" stroke="#E3E3E3" stroke-width="0.879348"/>
<path d="M12.5494 17.7723C12.7359 17.7723 12.9149 17.6981 13.0468 17.5662C13.1787 17.4343 13.2528 17.2554 13.2528 17.0688V12.8479C13.2528 12.6613 13.1787 12.4824 13.0468 12.3505C12.9149 12.2185 12.7359 12.1444 12.5494 12.1444C12.3628 12.1444 12.1838 12.2185 12.0519 12.3505C11.92 12.4824 11.8459 12.6613 11.8459 12.8479V17.0688C11.8459 17.2554 11.92 17.4343 12.0519 17.5662C12.1838 17.6981 12.3628 17.7723 12.5494 17.7723ZM19.5841 9.33052H16.7702V8.62704C16.7702 8.06732 16.5479 7.53052 16.1521 7.13473C15.7563 6.73895 15.2195 6.5166 14.6598 6.5166H13.2528C12.6931 6.5166 12.1563 6.73895 11.7605 7.13473C11.3647 7.53052 11.1424 8.06732 11.1424 8.62704V9.33052H8.32848C8.1419 9.33052 7.96297 9.40463 7.83104 9.53656C7.69912 9.66849 7.625 9.84742 7.625 10.034C7.625 10.2206 7.69912 10.3995 7.83104 10.5314C7.96297 10.6634 8.1419 10.7375 8.32848 10.7375H9.03196V18.4757C9.03196 19.0355 9.25431 19.5723 9.65009 19.968C10.0459 20.3638 10.5827 20.5862 11.1424 20.5862H16.7702C17.3299 20.5862 17.8667 20.3638 18.2625 19.968C18.6583 19.5723 18.8807 19.0355 18.8807 18.4757V10.7375H19.5841C19.7707 10.7375 19.9496 10.6634 20.0816 10.5314C20.2135 10.3995 20.2876 10.2206 20.2876 10.034C20.2876 9.84742 20.2135 9.66849 20.0816 9.53656C19.9496 9.40463 19.7707 9.33052 19.5841 9.33052ZM12.5494 8.62704C12.5494 8.44046 12.6235 8.26153 12.7554 8.1296C12.8873 7.99768 13.0663 7.92356 13.2528 7.92356H14.6598C14.8464 7.92356 15.0253 7.99768 15.1572 8.1296C15.2891 8.26153 15.3633 8.44046 15.3633 8.62704V9.33052H12.5494V8.62704ZM17.4737 18.4757C17.4737 18.6623 17.3996 18.8412 17.2677 18.9732C17.1357 19.1051 16.9568 19.1792 16.7702 19.1792H11.1424C10.9558 19.1792 10.7769 19.1051 10.645 18.9732C10.513 18.8412 10.4389 18.6623 10.4389 18.4757V10.7375H17.4737V18.4757ZM15.3633 17.7723C15.5498 17.7723 15.7288 17.6981 15.8607 17.5662C15.9926 17.4343 16.0667 17.2554 16.0667 17.0688V12.8479C16.0667 12.6613 15.9926 12.4824 15.8607 12.3505C15.7288 12.2185 15.5498 12.1444 15.3633 12.1444C15.1767 12.1444 14.9978 12.2185 14.8658 12.3505C14.7339 12.4824 14.6598 12.6613 14.6598 12.8479V17.0688C14.6598 17.2554 14.7339 17.4343 14.8658 17.5662C14.9978 17.6981 15.1767 17.7723 15.3633 17.7723Z" fill="#F26E6E"/>
</svg>
