<svg width="27" height="27" viewBox="0 0 27 27" fill="none" xmlns="http://www.w3.org/2000/svg">
<rect x="0.857643" y="0.801002" width="25.5011" height="25.5011" rx="7.47446" stroke="#E3E3E3" stroke-width="0.879348"/>
<path d="M19.9448 13.5578C19.7582 13.5578 19.5792 13.632 19.4472 13.7639C19.3152 13.8959 19.2411 14.0749 19.2411 14.2615V18.4838C19.2411 18.6705 19.1669 18.8495 19.035 18.9814C18.903 19.1134 18.724 19.1875 18.5374 19.1875H8.68536C8.49872 19.1875 8.31973 19.1134 8.18776 18.9814C8.05579 18.8495 7.98165 18.6705 7.98165 18.4838V8.63182C7.98165 8.44519 8.05579 8.2662 8.18776 8.13422C8.31973 8.00225 8.49872 7.92811 8.68536 7.92811H12.9076C13.0943 7.92811 13.2733 7.85397 13.4052 7.722C13.5372 7.59003 13.6114 7.41103 13.6114 7.2244C13.6114 7.03776 13.5372 6.85877 13.4052 6.7268C13.2733 6.59482 13.0943 6.52068 12.9076 6.52068H8.68536C8.12545 6.52068 7.58847 6.74311 7.19256 7.13902C6.79664 7.53494 6.57422 8.07191 6.57422 8.63182V18.4838C6.57422 19.0437 6.79664 19.5807 7.19256 19.9766C7.58847 20.3725 8.12545 20.595 8.68536 20.595H18.5374C19.0973 20.595 19.6342 20.3725 20.0302 19.9766C20.4261 19.5807 20.6485 19.0437 20.6485 18.4838V14.2615C20.6485 14.0749 20.5744 13.8959 20.4424 13.7639C20.3104 13.632 20.1314 13.5578 19.9448 13.5578ZM9.38908 14.0926V17.0764C9.38908 17.263 9.46322 17.442 9.59519 17.574C9.72716 17.706 9.90615 17.7801 10.0928 17.7801H13.0765C13.1692 17.7806 13.261 17.7629 13.3467 17.7279C13.4324 17.6929 13.5104 17.6413 13.5762 17.576L18.4459 12.6993L20.4444 10.743C20.5104 10.6775 20.5627 10.5997 20.5985 10.514C20.6342 10.4282 20.6526 10.3362 20.6526 10.2433C20.6526 10.1504 20.6342 10.0585 20.5985 9.9727C20.5627 9.88694 20.5104 9.80911 20.4444 9.74369L17.4607 6.72476C17.3953 6.6588 17.3174 6.60645 17.2317 6.57072C17.1459 6.535 17.0539 6.5166 16.961 6.5166C16.8681 6.5166 16.7762 6.535 16.6904 6.57072C16.6047 6.60645 16.5268 6.6588 16.4614 6.72476L14.4769 8.71627L9.59315 13.593C9.52793 13.6588 9.47633 13.7367 9.44131 13.8225C9.40629 13.9082 9.38854 14 9.38908 14.0926ZM16.961 8.21663L18.9526 10.2081L17.9533 11.2074L15.9618 9.21591L16.961 8.21663ZM10.7965 14.3812L14.9695 10.2081L16.961 12.1997L12.788 16.3727H10.7965V14.3812Z" fill="#1F91D0"/>
</svg>
