<svg width="16" height="16" viewBox="0 0 16 16" fill="none" xmlns="http://www.w3.org/2000/svg">
<path fill-rule="evenodd" clip-rule="evenodd" d="M8.07418 15.4419C7.8301 15.686 7.43437 15.686 7.19029 15.4419L4.72187 12.9735C4.47779 12.7294 4.47779 12.3337 4.72187 12.0896C4.96595 11.8456 5.36168 11.8456 5.60576 12.0896L7.00723 13.4911L7.00724 5.78947C7.00724 5.44429 7.28706 5.16447 7.63224 5.16447C7.97741 5.16447 8.25724 5.44429 8.25724 5.78947L8.25724 13.4911L9.65872 12.0896C9.90279 11.8456 10.2985 11.8456 10.5426 12.0896C10.7867 12.3337 10.7867 12.7294 10.5426 12.9735L8.07418 15.4419ZM4.98335 10.3378C4.95374 10.6817 4.65094 10.9365 4.30703 10.9069C2.88742 10.7847 1.76185 10.3468 1.01269 9.42354C0.277534 8.51751 -0.000133737 7.25775 -0.000133601 5.70842L-0.000133593 5.61263C-0.000133443 3.90397 0.338177 2.54517 1.25411 1.62924C2.17004 0.713308 3.52884 0.374998 5.2375 0.374998L10.0343 0.374999C11.743 0.374999 13.1018 0.713309 14.0177 1.62924C14.9337 2.54517 15.272 3.90398 15.272 5.61263L15.272 5.70842C15.272 7.24653 14.998 8.49858 14.2748 9.40267C13.537 10.3248 12.4277 10.7687 11.0281 10.8991C10.6845 10.9312 10.3799 10.6785 10.3478 10.3349C10.3158 9.99116 10.5684 9.68658 10.9121 9.65454C12.121 9.54185 12.8501 9.18254 13.2987 8.6218C13.7617 8.043 14.022 7.13242 14.022 5.70842L14.022 5.61263C14.022 4.0276 13.7008 3.08009 13.1338 2.51313C12.5669 1.94616 11.6194 1.625 10.0343 1.625L5.2375 1.625C3.65247 1.625 2.70496 1.94616 2.13799 2.51312C1.57103 3.08009 1.24987 4.0276 1.24987 5.61263L1.24987 5.70842C1.24987 7.1433 1.51378 8.05722 1.98335 8.63593C2.43893 9.1974 3.18126 9.55534 4.41428 9.66151C4.75818 9.69113 5.01297 9.99393 4.98335 10.3378Z" fill="white"/>
</svg>
