<svg width="14" height="16" viewBox="0 0 14 16" fill="none" xmlns="http://www.w3.org/2000/svg">
<path fill-rule="evenodd" clip-rule="evenodd" d="M2.01632 1.57843C1.54855 1.57843 1.13702 1.95552 1.13702 2.53014V4.13527C1.13702 4.24881 1.17904 4.43994 1.2748 4.65573C1.36911 4.86824 1.49174 5.05076 1.60558 5.16067C1.61107 5.16597 1.61644 5.17139 1.62169 5.17692L4.28886 7.98891C4.29694 7.99743 4.30473 8.00622 4.31221 8.01526C4.49723 8.23883 4.66453 8.53193 4.78636 8.83477C4.90734 9.13548 4.99898 9.48421 4.99898 9.81959V13.5367C4.99898 14.2264 5.78424 14.6535 6.37519 14.2897C6.37573 14.2894 6.37628 14.289 6.37683 14.2887L7.35365 13.6736C7.42326 13.6304 7.52449 13.5232 7.61081 13.3564C7.69578 13.1921 7.73514 13.0297 7.73514 12.9212V9.90407C7.73514 9.54179 7.82226 9.15632 7.96768 8.81163C8.11092 8.47209 8.32679 8.13441 8.61663 7.89176L11.6148 5.24134C11.7339 5.11883 11.8715 4.91698 11.9799 4.67768C12.0919 4.43049 12.1523 4.18871 12.1523 4.00251V2.45773C12.1523 1.97289 11.7578 1.57843 11.273 1.57843H2.01632ZM0.0957031 2.53014C0.0957031 1.41516 0.939309 0.537109 2.01632 0.537109H11.273C12.3329 0.537109 13.1936 1.39779 13.1936 2.45773V4.00251C13.1936 4.38355 13.0789 4.77537 12.9284 5.10747C12.7774 5.44069 12.5698 5.7592 12.3411 5.98787C12.3336 5.99542 12.3258 6.00273 12.3178 6.0098L9.30062 8.67697C9.29646 8.68064 9.29225 8.68425 9.28797 8.6878C9.15892 8.79473 9.02711 8.97935 8.92711 9.21639C8.82814 9.45099 8.77646 9.69913 8.77646 9.90407V12.9212C8.77646 13.2351 8.67704 13.5616 8.53572 13.8348C8.39601 14.1049 8.18397 14.3833 7.90435 14.5574C7.90384 14.5578 7.90333 14.5581 7.90281 14.5584L6.92454 15.1744C5.68123 15.9432 3.95766 15.0911 3.95766 13.5367V9.81959C3.95766 9.66016 3.91052 9.44769 3.82029 9.22342C3.7338 9.00842 3.62206 8.8182 3.5201 8.69157L0.873401 5.90116C0.641333 5.67408 0.453318 5.37178 0.323 5.07813C0.192476 4.78401 0.0957031 4.44413 0.0957031 4.13527V2.53014Z" fill="#838383"/>
</svg>
