<?xml version="1.0" encoding="utf-8"?>
<!-- Generator: Adobe Illustrator 26.1.0, SVG Export Plug-In . SVG Version: 6.00 Build 0)  -->
<svg version="1.1" id="Layer_1" xmlns="http://www.w3.org/2000/svg" xmlns:xlink="http://www.w3.org/1999/xlink" x="0px" y="0px"
	 viewBox="0 0 500 500" style="enable-background:new 0 0 500 500;" xml:space="preserve">
<g>
	<path d="M234.2,248.5c0-39.7-0.1-79.3,0.1-119c0-6.1-1-11.1-6.9-14.3c-2.1-1.1-4.3-3-5.3-5.1c-4-7.8-10.7-8.4-18.4-8.3
		c-19,0.3-38.1,0.1-57.1,0.1c-9.3,0-10.3,1-10.3,10.1c-0.1,12.7,0.1,25.4-0.1,38.1c-0.2,11.2-4.2,15.1-15.3,15.2
		c-15.9,0.1-31.7,0.2-47.6,0c-11.7-0.1-15.4-3.9-15.5-15.7c-0.1-42.4-0.1-84.7,0-127.1C57.7,11.2,61,8,72.3,7.9
		c16.5-0.1,33.1-0.1,49.6,0c10.8,0.1,14.1,3.4,14.2,14.3c0.1,13.1,0.2,26.3,0,39.4c-0.1,6.4,2.6,8.9,9,8.8c21.5-0.2,43.1-0.1,64.6,0
		c4.5,0,7.5-1.7,10.2-5.3c15.9-21,44.3-21,60.2,0.2c2.8,3.7,5.9,5.2,10.3,5.2c21.5-0.1,43.1-0.2,64.6,0c6.6,0.1,8.8-2.9,8.7-9.1
		c-0.2-12.7-0.1-25.4,0-38.1C364,11,367,8,379.1,7.9c16.3-0.1,32.6-0.1,48.9,0c10.7,0.1,14.1,3.3,14.2,13.7
		c0.1,43.1,0.1,86.1,0,129.2c0,10.4-4.1,14.4-14.5,14.6c-16.5,0.2-33.1,0.2-49.6,0c-10-0.1-13.9-4-14.2-14.2
		c-0.3-13.4-0.3-26.7-0.1-40.1c0.1-6.3-2.3-9.1-8.8-9c-21.5,0.2-43.1,0.1-64.6,0c-4.5,0-7.8,1.4-10.3,5.3c-1.5,2.5-3.4,5.1-5.9,6.5
		c-8.1,4.4-8.7,11.4-8.7,19.6c0.2,77.5,0.2,155,0,232.5c0,7.1,0.9,13.1,7.8,16.6c0.4,0.2,0.8,0.5,1,0.9
		c6.6,11.5,17.4,11.6,28.9,11.2c15.6-0.5,31.3-0.1,46.9-0.1c13.3,0,13.5-0.2,13.5-13.8c0-10.4-0.1-20.9,0.1-31.3
		c0.3-10.9,4.1-14.6,15.1-14.7c16.1-0.1,32.2-0.2,48.3,0c11.6,0.1,15,3.7,15,15.2c0.1,42.1,0.1,84.3,0,126.4
		c0,12.4-3.4,15.7-15.8,15.8c-16.1,0.1-32.2,0.1-48.3,0c-10.9-0.1-14.2-3.3-14.4-14.3c-0.2-13.8,0-27.6-0.1-41.5
		c-0.1-8.3-1.2-9.4-9.5-9.5c-21.1-0.1-42.1,0-63.2-0.1c-4.6,0-8,1.3-11,5.3c-15.1,20-41.6,21.1-58,2c-4.9-5.7-9.9-7.5-17-7.4
		c-19,0.3-38.1,0.1-57.1,0.1c-11.2,0-11.7,0.5-11.7,12c0,12.7,0.1,25.4-0.1,38.1c-0.2,11.4-3.9,15.1-15.2,15.1
		c-16.5,0.1-33.1,0.1-49.6,0c-10-0.1-13.6-3.6-13.6-13.6c-0.1-43.3-0.1-86.6,0-129.8c0-10.2,3.8-13.8,14.2-14
		c16.5-0.2,33.1-0.2,49.6,0c10.5,0.1,14.4,4.1,14.6,14.5c0.2,12.2,0.2,24.5,0,36.7c-0.1,6,2.5,8.6,8.5,8.6c21.8-0.1,43.5-0.1,65.3,0
		c4.1,0,7.5-1.3,9.9-4.8c1.4-2,2.9-4.4,5-5.5c9.2-4.9,9.5-13,9.4-22C234,324.2,234.2,286.4,234.2,248.5z"/>
</g>
</svg>
