<svg width="20" height="32" viewBox="0 0 20 32" fill="none" xmlns="http://www.w3.org/2000/svg">
<path d="M18.8018 8.79316L17.9009 9.22714L18.8018 8.79316ZM15.5931 2.13204L14.6922 2.56602L15.5931 2.13204ZM4.48114 2.11817L5.37869 2.55908L4.48114 2.11817ZM1.2049 8.78741L2.10245 9.22832L1.2049 8.78741ZM17 30H3V32H17V30ZM18 29C18 29.5523 17.5523 30 17 30V32C18.6569 32 20 30.6569 20 29H18ZM18 9.66112V29H20V9.66112H18ZM17.9009 9.22714C17.9661 9.36252 18 9.51085 18 9.66112H20C20 9.21032 19.8984 8.76531 19.7028 8.35917L17.9009 9.22714ZM14.6922 2.56602L17.9009 9.22714L19.7028 8.35918L16.4941 1.69806L14.6922 2.56602ZM13.7913 2C14.1754 2 14.5255 2.21999 14.6922 2.56602L16.4941 1.69806C15.994 0.659956 14.9436 0 13.7913 0V2ZM6.27624 2H13.7913V0H6.27624V2ZM5.37869 2.55908C5.54681 2.21684 5.89493 2 6.27624 2V0C5.13232 0 4.08796 0.650532 3.58359 1.67725L5.37869 2.55908ZM2.10245 9.22832L5.37869 2.55908L3.58359 1.67725L0.307356 8.34649L2.10245 9.22832ZM2 9.66924C2 9.51637 2.03505 9.36553 2.10245 9.22832L0.307357 8.34649C0.105146 8.75812 0 9.21063 0 9.66924H2ZM2 29V9.66924H0V29H2ZM3 30C2.44772 30 2 29.5523 2 29H0C0 30.6569 1.34314 32 3 32V30ZM12 8.26172C12 9.36629 11.1046 10.2617 10 10.2617V12.2617C12.2091 12.2617 14 10.4709 14 8.26172H12ZM10 6.26172C11.1046 6.26172 12 7.15715 12 8.26172H14C14 6.05258 12.2091 4.26172 10 4.26172V6.26172ZM8 8.26172C8 7.15715 8.89543 6.26172 10 6.26172V4.26172C7.79086 4.26172 6 6.05258 6 8.26172H8ZM10 10.2617C8.89543 10.2617 8 9.36629 8 8.26172H6C6 10.4709 7.79086 12.2617 10 12.2617V10.2617Z" fill="#00619E"/>
<path d="M5.71394 17.6961L5.7141 17.696C6.18809 17.2524 6.82582 17 7.52444 17C8.21548 17 8.84968 17.2485 9.32056 17.6839L9.99843 18.3106L10.6772 17.6848C11.6706 16.7691 13.3007 16.7737 14.2854 17.6953L14.2856 17.6955C15.2348 18.5835 15.238 19.9983 14.296 20.8893L9.9959 24.6683L5.70403 20.891C4.76171 19.9985 4.76566 18.5832 5.71394 17.6961Z" stroke="#00AED9" stroke-width="2"/>
</svg>
