<svg width="31" height="16" viewBox="0 0 31 16" fill="none" xmlns="http://www.w3.org/2000/svg">
  <path fill-rule="evenodd" clip-rule="evenodd" d="M16 7H18.388C18.724 7 19 6.70727 19 6.35091V5.06545C19 4.60091 18.748 4.17455 18.358 3.98364L14.8 2.54545L12.3598 0.474982C11.9984 0.168331 11.5398 0 11.0658 0H7.73415C7.26018 0 6.80161 0.168327 6.4402 0.474971L4.38495 2.21879C4.13225 2.4332 3.83022 2.58146 3.50603 2.65023L2.58499 2.8456C1.66092 3.04162 1 3.85744 1 4.80207V6C1 6.55229 1.44772 7 2 7H3.99995H4.08535C4.29127 6.4174 4.84689 6 5.5 6C6.15311 6 6.70873 6.4174 6.91465 7H13.0854C13.2913 6.4174 13.8469 6 14.5 6C15.1531 6 15.7087 6.4174 15.9146 7H16Z" fill="#00AED9"/>
  <path d="M23 3.99763H26C28.5111 4.07237 28.7978 5.38059 29.1777 7.44423L29.6606 10.7072C29.8394 11.9152 28.9033 13 27.6822 13H27M1 9L15.0342 12.9624C15.1226 12.9873 15.2141 13 15.3059 13H23V3H22.7208C22.2903 3 21.9082 3.27543 21.7721 3.68377L20.2279 8.31623C20.0918 8.72457 19.7097 9 19.2792 9H1Z" stroke="#00619E" stroke-width="2" stroke-linejoin="round"/>
  <circle cx="25" cy="13" r="2" stroke="#00619E" stroke-width="2"/>
  <circle cx="8" cy="13" r="2" stroke="#00619E" stroke-width="2"/>
</svg>  
