<svg width="32" height="32" viewBox="0 0 32 32" fill="none" xmlns="http://www.w3.org/2000/svg">
<path d="M2 29H1V30H2V29ZM18 15.8022C18 16.3544 18.4477 16.8022 19 16.8022C19.5523 16.8022 20 16.3544 20 15.8022H18ZM15.4511 30C16.0034 30 16.4511 29.5523 16.4511 29C16.4511 28.4477 16.0034 28 15.4511 28V30ZM7 2H14V0H7V2ZM3 29V6H1V29H3ZM18 6V15.8022H20V6H18ZM15.4511 28H2V30H15.4511V28ZM14 2C16.2091 2 18 3.79086 18 6H20C20 2.68629 17.3137 0 14 0V2ZM7 0C3.68629 0 1 2.68629 1 6H3C3 3.79086 4.79086 2 7 2V0Z" fill="#00619E"/>
<rect x="6" y="6" width="9" height="6" rx="1" stroke="#00619E" stroke-width="2"/>
<path d="M1 28C0.447715 28 0 28.4477 0 29C0 29.5523 0.447715 30 1 30V28ZM14 30C14.5523 30 15 29.5523 15 29C15 28.4477 14.5523 28 14 28V30ZM1 30H14V28H1V30Z" fill="#00619E"/>
<path d="M13 22.9614V23C13 24.1046 12.1046 25 11 25C9.89543 25 9 24.1046 9 23V22.9614C9 22.6578 9.06782 22.358 9.1985 22.0839L11 18.306L12.8015 22.0839C12.9322 22.358 13 22.6578 13 22.9614Z" stroke="#00619E" stroke-width="2"/>
<path d="M19.7788 10.0335H21C21.5523 10.0335 22 10.4812 22 11.0335V12C22 13.1046 22.8954 14 24 14V14C25.1046 14 26 13.1046 26 12V9.06934C26 7.96477 26.8954 7.06934 28 7.06934H29.0994" stroke="#00619E" stroke-width="2" stroke-linecap="round" stroke-linejoin="round"/>
<path d="M22 24L24 26L28.6562 20.2155C29.4963 21.2479 30 22.5652 30 24C30 27.3137 27.3137 30 24 30C20.6863 30 18 27.3137 18 24C18 20.6863 20.6863 18 24 18C24.5179 18 25.0206 18.0656 25.5 18.189" stroke="#00AED9" stroke-width="2" stroke-linecap="round" stroke-linejoin="round"/>
</svg>
