<?xml version="1.0" encoding="utf-8"?>
<!-- Generator: Adobe Illustrator 26.1.0, SVG Export Plug-In . SVG Version: 6.00 Build 0)  -->
<svg version="1.1" id="Layer_1" xmlns="http://www.w3.org/2000/svg" xmlns:xlink="http://www.w3.org/1999/xlink" x="0px" y="0px"
	 viewBox="0 0 500 500" style="enable-background:new 0 0 500 500;" xml:space="preserve">
<g>
	<path d="M250.1,491.2C190.7,409,132.8,328.7,94.8,236.1c-26.2-63.8-14.1-121.7,30.8-171.3C173,12.4,233.7-3.1,300.9,17.9
		c65,20.3,102.8,66.4,115.7,133.6c4.8,25.2,1.7,49.2-6.9,72.5C373.1,322.2,311.6,405.5,250.1,491.2z M249,259.7
		c45.3,0.3,82.2-35.1,83.4-80.1c1.2-45.1-36.6-83.3-82.2-83.4c-44.9,0-81.9,36.4-82.4,81.2C167.3,222,204.2,259.3,249,259.7z"/>
</g>
</svg>
