<?xml version="1.0" encoding="utf-8"?>
<!-- Generator: Adobe Illustrator 26.1.0, SVG Export Plug-In . SVG Version: 6.00 Build 0)  -->
<svg version="1.1" id="_x31_" xmlns="http://www.w3.org/2000/svg" xmlns:xlink="http://www.w3.org/1999/xlink" x="0px" y="0px"
	 viewBox="0 0 972.5 242.7" style="enable-background:new 0 0 972.5 242.7;" xml:space="preserve">
<style type="text/css">
	.st0{fill:#00619E;}
	.st1{fill:#1D1D1D;}
	.st2{fill:#F91512;}
	.st3{font-family:'SpaceRangerCondesnedItalic';}
	.st4{font-size:143.2083px;}
	.st5{font-size:77.4813px;}
	.st6{fill:#FFFFFF;}
	.st7{font-size:45.8945px;}
</style>
<g>
	<g>
		<path class="st0" d="M280.6,230.2c8.6-1.9,17.1-3.9,25.7-5.7c15.3-3.3,30.7-6.6,46.1-9.9c25.2-5.4,50.5-10.6,75.7-16.3
			c23.8-5.4,47.7-10.3,71.5-15.7c7.1-1.6,14.1-2.2,21.3-2.2c74.8-0.1,149.6,0.1,224.3-0.5c56.1-0.4,112.2-0.1,168.2-0.5
			c5.3,0,6.2,1.1,4.5,6.3c-4.6,13.7-9.2,27.3-13.6,41.1c-1.2,3.7-2.9,4.9-6.9,4.9c-121.9-0.1-243.7-0.1-365.6-0.1
			c-77,0-154.1,0-231.1,0C294,231.7,287.2,231.9,280.6,230.2z"/>
		<path class="st0" d="M277.9,92.4c-4,1.2-6.8-1.9-9.9-3.3c-11.1-5.1-22.4-8.8-34.7-8.9c-6.7-0.1-13,1.6-19.4,3.5
			c-3.8,1.1-7.5,2.1-10.9,4.4c-6.9,4.8-12.3,11.2-17.9,17.3c-5.7,6.2-9.9,13.5-13.5,21.2c-1.2,2.5-2.9,3.8-5.8,4
			c-18.6,1.4-37.2,2.8-55.8,4.4c-2.9,0.2-5.6,0-8.4-0.8c6.8-0.7,13.2-3.1,20-4.2c8.8-1.4,17.5-4,26.3-5.8c0.7-0.1,1.4-0.5,2.1-0.5
			c10.6,0.1,16.5-6.6,22-14.5c4.1-6,9-11.5,13.4-17.3c1.3-1.7,4-3.3,2.8-5.6c-1.1-2.1-3.9-1-5.8-0.9c-15.7,1.1-31.4,2.4-47,3.5
			c-16.8,1.2-33.6,2.3-50.4,3.5C76,93.1,67.2,94,58.4,94.7c-3.3,0.3-3.7,1.6-2.3,4.4c2.3,4.5,4.3,9.2,3.6,14.9
			c-1.9-1.1-2.2-2.8-2.9-4c-6.4-10.1-15.8-9.4-25.4-6.2c-1.3,0.4-2.6,2-3.8,0.5c-1-1.4,0.5-2.5,1.3-3.6c5.9-7.1,13.8-10.7,22.4-13.2
			c9.1-2.6,18.3-4.2,27.6-5.5c1.7-0.2,3.3-0.7,4.8-1.4c2.3-1,3.4-2.6,1.2-4.8c-4.9-4.9-2.2-14.9,5.4-16.4c5.1-1,10.2-2,15.4-0.1
			c2.1,0.8,3.8-0.2,5.3-1.6c10.9-10.6,23-19.8,36.1-27.3c17.2-9.8,35.5-16,55.7-17c19.5-0.9,39-1.8,58.5-1.8
			c28.8-0.1,57.3,2.5,85.4,8.1c19.2,3.9,38.1,9.5,55.6,18.7c6.5,3.4,13.5,2.3,20.2,2.7c18.6,1,36.9,3.6,54.8,8.7
			c6.3,1.8,12.6,3.9,18.3,7.3c2,1.2,2.9,2.6,1.7,4.4c-4.4,6.7-2.1,13.5-0.8,20.3c0,0.3,0.3,0.5,0.3,0.8c0.4,2.4,3.1,5.5,0,7.1
			c-2.8,1.5-6.7,1.7-9.5-0.9c-3.4-3.3-6.8-6.7-9.8-10.4c-1.6-2-3.3-2.9-5.7-2.9c-22.5-0.2-45-0.4-67.5-0.7c-2.6,0-4.6,0.8-6,3.1
			c-0.9,1.6-2.5,2.8-3.2,4.4c-3.8,8-10.7,9-18.5,9c-18-0.1-36,0.3-54,0.5c-6.3,0.1-6.6,0.3-6.6,6.7c0,6.7-0.1,6.7-6.5,9.3
			c-9.2,3.8-18.4,7.7-27.5,11.5c-0.9,0.4-1.9,0.7-2.8,0.8c-1,0.1-2.5,0.8-3-0.5c-0.5-1.5,1.2-1.5,2.1-2c8.7-5,17-10.5,26.1-14.6
			c2.8-1.3,3.9-4.3,3.9-7.4c0-7,0.2-14.1,0-21.1c-0.1-4,0.8-6.8,5.1-7.8c1.6-0.4,3.1-1.3,4.6-2c1-0.4,2.5-0.5,2.3-2
			c-0.2-1.5-1.2-2.6-2.8-2.6c-1.8,0-3.7-0.2-5.4,0.2c-14.8,3.8-30.1,5.5-44.9,9.2c-1.9,0.5-3.9,0.4-5.8,0.7c-1.3,0.2-3,0.1-3.2,2
			c-0.2,1.6,1.3,1.9,2.4,2.5c6.8,3.8,12.7,8.7,16.6,15.6C277.8,90.9,278.4,91.6,277.9,92.4L277.9,92.4z M200.6,58.2
			c8.2-2.2,15.8-4.5,23.5-6.4c6.1-1.5,7.7-5,4-10.1c-6.6-9.2-15.8-13.4-27-13.8c-4.1-0.2-6.8,1.4-8.7,4.6
			c-5.9,10-11.7,20.1-17.5,30.1c-0.7,1.2-1.6,2.5-0.6,3.9c1,1.5,2.5,0.8,3.9,0.8c5.8-0.1,11.3-2.2,17-2.8c14.8-1.7,29.4-4.4,44-7
			c5.2-0.9,5.6-2,4.9-7.2c-2-16.5-13.7-25.3-27.9-29.3c-8.3-2.4-16.7-1.6-25.1-1.7c-8.5-0.1-16.5,2.6-23.9,5.7
			c-8.9,3.7-17.5,8.4-25.4,14.3c-13.5,10.1-24.5,22.4-35.4,35.1c-0.8,0.9-1.4,1.9-0.8,3c0.7,1.4,1.9,0.8,3,0.6
			c6-0.9,11.9-2,17.8-2.9c10.1-1.6,20.2-2.9,30.3-5c3.3-0.7,5.3-2.3,6.7-5C168.9,54.8,175.7,45,182,35c1-1.6,2.7-3.1,1.4-4.8
			c-1.1-1.5-3.5-1-5.1-0.5c-15.4,4.9-29.9,11.4-42.9,21.3c-1.5,1.2-3.1,3.2-6.2,2.8c4-3.6,7.1-7.6,11.3-10.2
			c10.2-6.1,19.9-13.4,31.9-15.9c4.4-0.9,8.5-3.1,12.9-3.6c8.7-1,17.4-0.5,26.1-0.1c1.4,0.1,2.8,0.5,4.1,1
			c10.5,4.3,18.2,11,20.9,22.6c0.9,4,0.4,6.5-2.4,6.9c-8.8,1.6-17.8,2.3-26.5,4.4C205.3,59.6,203.1,59.6,200.6,58.2z M345.6,61
			c2.2,1.3,4.4,1,6.5,1c12.9,0,25.9,0,38.8-0.1c2.6,0,4.9,0.2,6.6,2.8c1.8,2.9,4.8,3.4,8.1,3.6c20.5,1,41,0.2,61.5,1
			c6.5,0.2,12.1-1.1,17.2-5.1c3.4-2.7,3.6-3.4-0.1-5.5c-0.8-0.5-1.7-0.9-2.7-1.3c-19.8-7-40.4-9.9-61.2-9.5
			c-19.8,0.4-39.5,2.5-58.7,7.5C356.2,56.7,350.1,56.2,345.6,61z M392.9,40.7c-1.3-2.1-3.1-3.5-5.5-4.3c-7.8-2.6-15.3-5.9-23.3-8.2
			c-11.5-3.3-23.1-5.6-35-6.2c-16-0.8-32,0.6-48,0.6c-1.4,0-3.5-0.9-3.8,1.4c-0.3,2.1,1.5,3.4,3.1,3.9c9.4,3.2,18.3,7.6,26.5,12.9
			c5.4,3.5,10.6,4.9,17.1,4.4c21.5-1.5,43.1-2.3,64.7-3.4C390.3,41.8,391.7,41.9,392.9,40.7z M352.5,84.6
			C352.5,84.6,352.5,84.6,352.5,84.6c8.2-0.1,16.3-0.2,24.5,0c2.6,0,4.6-0.8,6.3-2.7c2.1-2.4,4.3-4.8,6.2-7.4
			c0.9-1.1,2.7-2.2,1.9-3.9c-0.8-1.7-2.7-1.1-4.2-1.1c-15.3,0-30.6,0.3-46,0c-6.2-0.1-11.4,2.3-16.6,5c-3.3,1.7-2.3,4.8-1.9,7.5
			c0.4,2.6,2.5,2.6,4.5,2.6C335.6,84.6,344,84.6,352.5,84.6z M490.5,76.7c-0.7-1.8,0.3-4.8-3.3-4.6c-1.4,0.1-2.5,0.6-2.4,2.3
			c0.2,2.7,2.1,4.3,4.4,4.9C490.5,79.7,490.6,78,490.5,76.7z"/>
		<path class="st1" d="M443,182.2c-6.9,2-13.4,2.4-19.8,3.6c-16.5,3.2-33.2,5.6-49.8,8.5c-16.6,2.9-33.1,6.2-49.6,9.1
			c-11.9,2.1-23.8,4-35.7,6c-5.5,0.9-11,2.1-16.6,2.9c-4.1,0.6-6.3,3.4-8.1,6.6c-4,7-10.8,9.8-18.2,10.3c-9.5,0.6-19.1,1.1-28.6,0.5
			c-10.1-0.6-18.5-3.8-24.4-12.4c-1.3-2-3.2-2.7-5.6-3.2c-9.2-1.9-18.3-4.2-27.4-6.3c-8.9-2-17.7-4-26.6-6
			c-9.7-2.2-19.4-4.4-29.1-6.6c-8.7-2-17.5-4-26.2-6c-3.5-0.8-7-0.2-10.4,0.8c-11.7,3.5-22.6,0.6-32.9-4.7
			C14.5,175,7.3,153.4,14.5,133c4.3-12.1,12.4-21.2,26-23.7c2.5-0.5,4.2,0,5.5,2.5c2.5,4.7,4.2,9.6,6.3,14.5
			c2.8,6.6,4.3,14,9.4,20.4c-0.5-4.4-2.6-7.7-2-11.4c0.2-0.9-0.2-2.2,1-2.5c1.6-0.3,1.7,1,2.1,2c2.4,6.5,5.4,12.8,8.6,19
			c0.9,1.7,2.3,2.7,4.5,2.3c14.1-2.6,28.1-5.3,42.2-7.8c10.9-2,21.8-3.8,32.7-5.7c6.6-1.2,13.2-2.5,19.9-3.7
			c2.7-0.5,4.4-2.1,4.9-4.6c2.1-9.2,7.3-16.9,13.5-23.3c6.2-6.4,14.6-10,24.3-9.3c16.3,1.2,25.4,11.3,32,24.8
			c5.4,11,7.4,22.9,9.6,34.7c0.3,1.6,0.2,3.3,2,4.4c9.8,5.9,19.5,11.9,29.3,17.9c2.1,1.3,4.4,1.6,6.8,1.6
			c25.8-0.8,51.7-2.1,77.5-2.3c20.9-0.2,41.8-1.3,62.8-2C436.4,180.6,439.3,180.9,443,182.2z M239.6,166.9c0-6.1-1.1-11.9-2.3-17.8
			c-2.4-11.3-6.6-21.4-15.2-29.4c-7.5-6.9-17.1-7.1-24.5-0.3c-7.2,6.6-10.7,15.2-12.8,24.5c-2.8,11.9-2.9,23.8-0.2,35.9
			c2.5,11.4,6.4,21.9,15.2,30c4.5,4.1,9.7,6.7,16.1,5.1c6.1-1.5,10.4-6.1,13.6-10.8C236.9,192.9,239.3,180.1,239.6,166.9z
			 M83.8,169.3c3.8,0.3,7.2,0.7,10.7,0.7c18.6,0.2,37.1,0.3,55.7,0.5c1.5,0,3.5-0.5,3.8,1.6c0.3,1.7-1.4,2.6-2.6,3.6
			c-1,0.7-2.1,0.6-3.2,0.6c-3.5-0.1-7-0.2-10.5-0.3c-19.5-0.7-39-1.4-58.6-2c-1.3,0-3.1-0.8-3.5,1.2c-0.3,1.7,0.3,3.3,1.9,4.4
			c1.3,0.8,2.6,0.9,4,0.9c4.9,0.2,9.8,0.3,14.7,0.6c23.7,1.5,47.4,3,71.1,4.5c4.9,0.3,4.8-0.1,4.3-4.9c-1-9.6-1.2-19.3,0.5-28.9
			c0.2-0.9,1.4-2.2-0.2-2.9c-1.3-0.6-2,0.3-2.6,1.4c-0.7,1.2-1.6,2.3-2.3,3.5c-2.6,4.4-6.6,6.9-11.6,7.2
			c-21.5,1.1-42.7,4.8-64.2,5.7C88.6,166.7,86,166.8,83.8,169.3z M66.6,177.8c-0.9,0.1-1.8,0.1-2.8,0.2c-6.8,0.6-7.4-0.2-5.1-6.9
			c1.1-3.2,1.4-6.6,1.3-10c-0.1-2.6-1.1-4.4-4.2-3.5c-1.6,0.5-3,0.1-4.4-0.7c-5.5-3.1-6.2-9.7-1.2-13.9c1.6-1.4,2.2-2.7,1.8-4.7
			c-0.4-2.1-1.6-3-3.7-3.4c-2.8-0.5-5-2.2-7.2-4c-2.9-2.4-3-3.9,0.1-5.9c0.9-0.6,1.9-1.3,2.9-1.8c2.3-1.1,2.4-2.6,1.5-4.8
			c-1.6-3.8-3.1-4.4-7.2-2.5c-6.5,3.1-11.6,8.3-15.1,14c-10,16-4.7,33.1,7.8,44.7c5.4,5,12.4,6.1,19.4,7
			C56.2,182.3,61.7,181,66.6,177.8z"/>
		<path class="st2" d="M277.8,92.5c0.9-0.4,1.6-0.1,1.7,0.9c0.1,0.8-0.5,0.9-1,0.8C277.5,93.9,277.2,93.3,277.8,92.5
			C277.9,92.4,277.8,92.5,277.8,92.5z"/>
		<path class="st1" d="M221.4,205.9c-4.1-0.3-7-2.8-9.6-5.7c-0.5-0.5-0.8-1.1-1.2-1.7c-4.4-5.8-4.3-6,1.6-10.1
			c3.2-2.2,6.4-4.5,9.6-6.7c1.8-1.3,3.1-0.8,4.2,0.9c2.5,3.9,2.4,17.1-0.2,20.9C224.2,205.6,224.2,205.6,221.4,205.9z"/>
		<path class="st1" d="M226.9,133.2c0.4,2.7,0.6,5.3,0,7.9c-0.7,3.2-3,4.2-5.8,2.4c-3.8-2.5-7.6-5.2-11.2-8c-2.8-2.2-1.5-4.8,0-6.9
			c1.9-2.6,4.9-4,7.6-5.7c1.2-0.7,2.8-0.5,3.6,0.3C223.7,126.1,226.8,128.8,226.9,133.2z"/>
		<path class="st1" d="M235.3,163.7c0,1.8,0,3.6,0,5.5c-0.1,4.5-0.8,5.2-5.1,4.7c-5.6-0.6-9.2-5.5-8.9-12.2
			c0.3-5.9,4.4-10.3,9.9-10.3c2.5,0,3.9,1.4,3.9,3.9c0,2.8,0,5.6,0,8.4C235.2,163.7,235.3,163.7,235.3,163.7z"/>
		<path class="st1" d="M203.2,166.8c2.5,1.4,5.6,0.7,8.4,1.5c2.9,0.7,3.6,2.9,1.9,5.3c-2.2,3.1-4.3,6.2-6.4,9.3
			c-0.6,0.8-1.1,1.5-2.3,1.4c-1.3-0.1-1.4-1.1-1.8-2c-1.8-4.1-1.2-8.5-2.3-12.7C200.2,168.3,201.1,166.8,203.2,166.8z"/>
		<path class="st1" d="M203.6,158.6c-1.7-0.3-3.6-0.3-3.2-2.6c0.7-4.3,1.6-8.5,2.3-12.8c0.2-1.3,1-2,2.1-2.3c1.4-0.4,1.5,0.9,2,1.6
			c2.2,3.2,4.4,6.5,6.7,9.6c1.6,2.1,1.6,3.6-1.2,4.3C209.4,157.2,206.4,157.9,203.6,158.6z"/>
		<path class="st1" d="M33.6,132.9c2.2,2.8,4.2,5.2,6.1,7.7c0.2,0.3,0.5,0.7,0.5,1.1c0.1,1.2-0.3,2.5-1.4,2.8
			c-2.7,0.9-5.6,2.1-8.5,1.1c-1.4-0.5-1.1-2.1-0.9-3.4C29.9,138.9,31.7,136.1,33.6,132.9z"/>
		<path class="st1" d="M29.4,155.3c0-0.1,0-0.3,0-0.4c0-1,0.5-1.8,1.3-1.9c3.1,0,6.1,0.4,8.7,2.1c0.8,0.5,1.4,1.7,0.6,2.6
			c-1.9,2-2.7,4.9-5,6.6c-0.7,0.5-1.5,1.4-2,0.2C31.7,161.5,29.6,158.8,29.4,155.3z"/>
		<path class="st1" d="M47.8,176.7c-2.4-0.2-4.8-2.5-7.6-4c-0.2-0.1-0.4-0.4-0.5-0.7c-0.3-1-1.1-2.4,0.1-3.1
			c2.8-1.5,4.9-4.4,8.4-4.3c1.8,0.1,1.9,1.8,2.1,3.1c0.3,2.1,0.5,4.2,1,6.2C51.9,176.3,51,177.1,47.8,176.7z"/>
	</g>
	<text transform="matrix(1 0 0 1 311.0146 173.2346)"><tspan x="0" y="0" class="st1 st3 st4">DREAM</tspan><tspan x="404.3" y="0" class="st0 st3 st4"></tspan></text>
	<g>
		<text transform="matrix(1 0 0 1 523.17 87.3871)" class="st0 st3 st5">GET YOUR</text>
	</g>
	<g>
		<text transform="matrix(1 0 0 1 486.5532 218.7196)" class="st6 st3 st7">TAG LINE GOES HERE</text>
	</g>
</g>
</svg>
