<?xml version="1.0" encoding="utf-8"?>
<!-- Generator: Adobe Illustrator 26.1.0, SVG Export Plug-In . SVG Version: 6.00 Build 0)  -->
<svg version="1.1" id="Layer_1" xmlns="http://www.w3.org/2000/svg" xmlns:xlink="http://www.w3.org/1999/xlink" x="0px" y="0px"
	 viewBox="0 0 500 500" style="enable-background:new 0 0 500 500;" xml:space="preserve">
<g>
	<path d="M482.5,414.7c-155,0-310,0-465,0c0.1-1.7-0.7-3.2-1.2-4.8C10.4,391.1,6.1,372,4.7,352.3c-0.2-3.1,0-6.3-0.8-9.4
		c0-9,0-18.1,0-27.1c0.1-1,0.3-2,0.4-3c0.2-5.9,0.7-11.7,1.6-17.5c3.9-27.9,12.2-54.5,25.5-79.3c22.1-41.2,53.6-73.7,93.8-97.5
		c29.8-17.6,62-27.9,96.4-31.8c4.8-0.5,9.6-1,14.4-1.5c7.2,0,14.4,0,21.6,0c0.8,0.4,1.6,0.4,2.4,0.4c9.5,0.4,18.9,1.2,28.2,2.5
		c30.6,4.2,59.2,14.3,85.9,29.8c31.2,18.1,57,42.3,78.1,71.4c24.3,33.7,38.3,71.3,42.4,112.7c0.5,5.4,1,10.8,1.5,16.2
		c0,8,0,16.1,0,24.1c-0.1,1-0.4,2-0.4,2.9c-0.7,18.4-4,36.5-9,54.2C485.3,404.6,483.4,409.5,482.5,414.7z M253.4,291.2
		c-2,0-4,0.1-6,0c-8.7-0.5-16,2.9-22.5,8.3c-12.4,10.4-17.4,23.7-14.7,39.8c0.3,1.8-0.1,2.9-1.4,4.2c-3.5,3.3-7,6.7-10.4,10.2
		c-3.8,3.8-7.3,7.8-9.8,12.6c-6.1,11.9,2.2,27.3,15.5,28.9c4.8,0.6,8.9-0.6,12.7-3.3c5.5-3.9,10.6-8.2,15.2-13.1
		c4.9-5.3,10.4-7.6,17.7-6.8c7.8,0.9,15.1-1.5,21.7-5.6c9.8-6.1,16.8-14.4,18.6-26.1c0.9-5.6,0.7-11.4,0.6-17c0-2.6,0.7-4.5,2.4-6.5
		c33.9-40.5,67.8-81.1,101.6-121.7c5.5-6.6,11.1-13.2,15.8-20.4c0.5-0.7,1.4-1.6,0.5-2.4c-0.8-0.8-2-0.7-3-0.1c-1,0.6-2,1.2-2.9,2
		c-4.5,3.5-9,7-13.4,10.6c-40.3,33.1-80.2,66.8-120,100.6C266,289.9,260.6,292.7,253.4,291.2z M430.9,225.1
		c-0.3,0.2-0.7,0.3-1.1,0.5c-10.9,6-21.6,12.3-32.1,19c-1.2,0.8-1.5,1.6-0.7,2.9c2.7,5,5.5,9.9,8.1,15c0.8,1.5,1.5,0.8,2.4,0.3
		c10.6-5.9,21.1-11.8,31.5-18c1.4-0.8,1.8-1.6,1.2-3.2c-2.2-5.4-5.2-10.5-8.1-15.5C431.8,225.6,431.6,225.1,430.9,225.1z
		 M68.8,224.7c-0.7,0.2-0.9,0.8-1.2,1.4c-2.5,4.9-4.9,9.9-7.5,14.7c-0.8,1.5-0.6,2.2,0.8,3.1c10.4,6.7,21.3,12.6,31.8,19
		c1.4,0.9,1.8,0.2,2.4-0.9c2.7-5,5.3-10,8.1-15c0.9-1.6,0.6-2.3-0.9-3.2c-10.7-6.1-21.3-12.2-31.9-18.4
		C69.9,225.4,69.4,225.1,68.8,224.7z M171.2,184.5c-0.2-0.4-0.4-1-0.7-1.5c-1.6-3-3.1-5.9-4.7-8.8c-4.2-7.7-8.4-15.4-13.4-22.6
		c-0.8-1.2-1.6-2.2-3.2-1.1c-4.3,3-8.8,5.4-13.4,7.8c-1.1,0.6-1.5,1.3-0.8,2.6c5.8,11.3,12.1,22.3,18.3,33.4
		c0.5,0.9,0.9,1.2,1.9,0.5c4.8-3.2,9.8-6,14.9-8.8C170.7,185.8,171.5,185.6,171.2,184.5z M260.2,146.9c0-6.2,0-12.4,0-18.6
		c0-0.9,0.3-1.9-1.2-2c-5.5-0.3-11-0.6-16.5-0.3c-2,0.1-2.9,1.1-3,3.2c-0.2,12-0.1,24.1,0.2,36.1c0,1.6,0.6,1.9,2.1,1.9
		c5.4-0.1,10.9-0.1,16.3,0c1.6,0,2.1-0.5,2.1-2.1C260.1,159.1,260.2,153,260.2,146.9z M365.5,159.7c0.1-0.8-0.3-1.2-0.8-1.4
		c-4.9-2.1-9.2-5-13.8-7.6c-1.8-1-2.8-0.6-3.8,1.1c-3.3,5.2-6.4,10.6-9.3,16c-2.8,5.1-5.6,10.3-7.9,15.6c-0.4,0.9-1.2,1.9,0.4,2.7
		c4.3,2.4,8.6,4.8,12.8,7.3c2,1.2,3.4,0.9,4.7-1.3c5.9-10.2,11.6-20.5,17-30.9C365,160.7,365.3,160.1,365.5,159.7z M55,352
		c6.1,0,12.2-0.1,18.3,0c1.6,0,2.1-0.5,2.1-2.1c-0.1-5.4-0.1-10.9,0-16.3c0-1.5-0.4-2-2-2c-12.4,0.1-24.7,0-37.1,0
		c-1.4,0-1.8,0.5-1.8,1.9c0.1,5.4,0.1,10.9,0,16.3c0,1.7,0.4,2.3,2.2,2.3C42.8,352,48.9,352,55,352z M445.3,331.6
		c-6.2,0-12.4,0-18.6,0c-1.5,0-2.2,0.3-2.2,2.1c0.1,5.4,0.1,10.9,0,16.3c0,1.7,0.5,2.1,2.1,2.1c12.2-0.1,24.4-0.1,36.6,0
		c1.5,0,2.2-0.3,2.2-2c-0.1-5.4-0.1-10.9,0-16.3c0-1.6-0.5-2.2-2.1-2.1C457.3,331.7,451.3,331.6,445.3,331.6z"/>
	<path d="M249.6,311.2c11.3,0,19.6,6.9,20.7,17.6c0.8,7.6-2.5,13.6-8,18.6c-7.5,6.9-16.5,7.7-25,2c-7.7-5.1-10.7-14.4-7.6-23.4
		C232.8,317.1,240.8,311.2,249.6,311.2z"/>
</g>
</svg>
