<?xml version="1.0" encoding="utf-8"?>
<!-- Generator: Adobe Illustrator 26.1.0, SVG Export Plug-In . SVG Version: 6.00 Build 0)  -->
<svg version="1.1" id="Layer_1" xmlns="http://www.w3.org/2000/svg" xmlns:xlink="http://www.w3.org/1999/xlink" x="0px" y="0px"
	 viewBox="0 0 500 500" style="enable-background:new 0 0 500 500;" xml:space="preserve">
<g>
	<path d="M489.7,249.6c0,132.8-107.3,240.1-240.2,240.1C117,489.6,10.3,381.9,10.3,248.4c0-131.9,108.2-238.1,242.3-238.1
		C382.2,10.4,489.7,118.9,489.7,249.6z M426.3,251.3c0.5-96.8-78.2-176.8-174.6-177.5C154.8,73,74.6,151.6,73.7,248
		c-0.9,97.4,78.3,177.8,175.3,178.2C345.9,426.7,425.7,347.8,426.3,251.3z"/>
	<path d="M250.1,414.6c-91,0.1-164.3-73.1-164.6-164.2c-0.3-91.5,73.8-165.5,165.1-165c91.2,0.5,164.1,73.9,163.9,164.8
		C414.3,341.3,341.1,414.5,250.1,414.6z M250,111.5c-16.1-0.2-31.6,2.5-46.7,8.1c-5,1.8-6.4,3.6-4.3,8.8c8.3,20.2,16.8,40.3,31,57.3
		c14,16.8,26.3,16.8,40.3,0.1c13.6-16.2,21.7-35.5,30-54.7c3.2-7.4,1.1-10.1-6-12.4C279.8,114,265.2,111.2,250,111.5z M273.6,329.6
		c0.2,15.5,3.1,30.7,6.1,45.9c1.3,6.4,3.5,9.6,11,7.2c30.9-10.1,55.6-28.3,74.2-55c3-4.3,4.2-7.4-1.6-10.7
		c-16.5-9.6-33.3-18.9-51.9-23.6c-24.8-6.2-36.2,2.5-37.7,28.1C273.4,324.2,273.6,326.9,273.6,329.6z M226.3,330.8
		c0-3.6,0.3-7.3,0-10.9c-2.1-24.1-13-32.3-36.5-26.7c-18.7,4.5-35.5,13.6-52,23.3c-5.9,3.5-6,6.3-2.4,11.5
		c18.7,26.5,43.4,44.8,74.3,54.7c6.3,2,9,0.2,10.3-6.2C223.1,361.4,225.8,346.3,226.3,330.8z M111.4,243.9c3,4.4-6,16.1,7.4,15.2
		c21.3-1.3,42.6-4.2,61.9-14.3c16-8.4,19.2-18.8,10.9-34.9c-9.3-18.1-24-31.7-38.5-45.5c-5.9-5.6-9.2-4.6-13.6,1.6
		C122.8,189.2,113,214.6,111.4,243.9z M388.2,237.6c-1.1-22.6-10.8-48.6-28.1-71.9c-3.3-4.5-6-7.6-11.6-2.4
		c-14.8,13.6-29.5,27.3-39.2,45.1c-9.8,17.9-6.1,28.4,12.4,37.4c15.8,7.6,33,9.8,50.1,12.5C388.1,261,388.9,260.4,388.2,237.6z
		 M249.4,224c-14.5,0.3-25.5,11.8-25.4,26.3c0.1,14.5,11.5,25.7,26,25.7c15.1,0,26.5-11.9,26.1-27C275.6,234.6,264,223.7,249.4,224z
		"/>
</g>
</svg>
