<?xml version="1.0" encoding="utf-8"?>
<!-- Generator: Adobe Illustrator 26.1.0, SVG Export Plug-In . SVG Version: 6.00 Build 0)  -->
<svg version="1.1" id="Layer_1" xmlns="http://www.w3.org/2000/svg" xmlns:xlink="http://www.w3.org/1999/xlink" x="0px" y="0px"
	 viewBox="0 0 500 500" style="enable-background:new 0 0 500 500;" xml:space="preserve">
<g>
	<path d="M157.2,231.1c20.2,0,40.4-0.5,60.6,0.2c10.1,0.4,14.3-1.8,13.6-13c-1-17.9-0.6-35.9-0.1-53.9c0.2-7.4-1.7-11.7-8.8-15.7
		c-23.8-13.4-33.7-39.2-26.1-64.5c7.6-25.3,31.7-41.3,59-39.2c24.9,1.9,45.2,21.2,49.8,47.3c3.8,21.7-6.4,44.4-26.9,55.7
		c-8.2,4.5-9.9,9.7-9.7,18c0.5,18.9,0.4,37.7,0.1,56.6c-0.1,6.3,1.7,8.7,8.3,8.6c35-0.3,70.1,0.3,105.1-0.3
		c19.9-0.3,34.2-15.4,35.4-35.3c0.3-4.9-0.2-9.9,0.2-14.8c1.5-16.1-0.4-28.5-17.1-38.8c-20.3-12.6-25-40.7-15.7-62.9
		c9.3-22.4,30.9-35.6,55.8-34.2c23.5,1.3,43.8,18.4,50,42.2c5.9,22.8-2.8,47.6-23.6,59.5c-10.4,5.9-12.8,12.6-12.3,23.4
		c0.6,12.5,1,25.4-1.2,37.6c-6.4,35.9-36.5,60.5-73.4,61c-33.2,0.4-66.5,0.4-99.7-0.1c-9.4-0.2-12.4,2.3-12,11.9
		c0.8,18.4,0.6,36.8,0.1,55.2c-0.2,7.7,2.3,11.6,9.1,15.6c24.1,13.8,33.8,40.4,25.3,66c-8.2,24.5-32.3,40-58.9,37.7
		c-25.3-2.2-46-22.6-49.9-49c-3.1-21.4,7.8-43.6,28.7-55.1c6.6-3.7,8.6-7.5,8.4-14.6c-0.4-18.9-0.4-37.7,0-56.6
		c0.2-7.5-0.9-11.2-10-11.1c-43.1,0.5-86.2,0.4-129.4,0.1c-7.7-0.1-10.1,2.4-9.9,10c0.4,18,0.7,36-0.1,53.9c-0.4,9.5,2.2,15,11,20.1
		c23.7,13.8,32.4,43.1,22,68.2c-10.2,24.5-36.8,38.7-62.6,33.5C26,448.7,6.7,424.9,7.5,397.9c0.6-20.9,10.3-37.2,28.7-47.1
		c7.1-3.9,8.9-8.2,8.8-15.7c-0.3-56.6-0.3-113.2,0.1-169.8c0.1-8.1-1.9-12.6-9.4-16.8c-23.4-13.2-33.2-38.3-26-63.3
		c7-24.4,28.5-40.6,54-40.5c24.7,0.1,46.5,16.4,53.3,39.8c7.2,24.8-2.6,50.5-25.6,63.6c-7.4,4.2-9.6,8.9-9.3,17
		c0.6,17.9,0.6,35.9,0,53.9c-0.3,9.2,2.1,12.5,11.8,12.2C115,230.6,136.1,231.1,157.2,231.1z"/>
</g>
</svg>
