<svg width="27" height="27" viewBox="0 0 27 27" fill="none" xmlns="http://www.w3.org/2000/svg">
<rect x="0.681862" y="0.801002" width="25.5011" height="25.5011" rx="7.47446" stroke="#E3E3E3" stroke-width="0.879348"/>
<path fill-rule="evenodd" clip-rule="evenodd" d="M13.5023 13.2999C13.1157 13.2999 12.8023 13.6133 12.8023 13.9999C12.8023 14.3865 13.1157 14.6999 13.5023 14.6999C13.8889 14.6999 14.2023 14.3865 14.2023 13.9999C14.2023 13.6133 13.8889 13.2999 13.5023 13.2999ZM11.4023 13.9999C11.4023 12.8401 12.3425 11.8999 13.5023 11.8999C14.6621 11.8999 15.6023 12.8401 15.6023 13.9999C15.6023 15.1597 14.6621 16.0999 13.5023 16.0999C12.3425 16.0999 11.4023 15.1597 11.4023 13.9999Z" fill="#1F91D0"/>
<path fill-rule="evenodd" clip-rule="evenodd" d="M7.31268 13.9999C9.06123 16.8913 11.1297 18.1999 13.5008 18.1999C15.8718 18.1999 17.9403 16.8913 19.6889 13.9999C17.9403 11.1085 15.8718 9.7999 13.5008 9.7999C11.1297 9.7999 9.06123 11.1085 7.31268 13.9999ZM5.89302 13.6526C7.83582 10.2529 10.3648 8.3999 13.5008 8.3999C16.6368 8.3999 19.1657 10.2529 21.1085 13.6526C21.2315 13.8678 21.2315 14.132 21.1085 14.3472C19.1657 17.7469 16.6368 19.5999 13.5008 19.5999C10.3648 19.5999 7.83582 17.7469 5.89302 14.3472C5.77004 14.132 5.77004 13.8678 5.89302 13.6526Z" fill="#1F91D0"/>
</svg>
