<?xml version="1.0" encoding="utf-8"?>
<!-- Generator: Adobe Illustrator 26.1.0, SVG Export Plug-In . SVG Version: 6.00 Build 0)  -->
<svg version="1.1" id="Layer_1" xmlns="http://www.w3.org/2000/svg" xmlns:xlink="http://www.w3.org/1999/xlink" x="0px" y="0px"
	 viewBox="0 0 500 500" style="enable-background:new 0 0 500 500;" xml:space="preserve">
<g>
	<path d="M250.6,98.2c69.4,0,138.7,0,208.1,0c25.3,0,35.7,10.3,35.7,35.3c0,76.7,0,153.5,0,230.2c0,24.7-10.5,39.4-38.5,39.3
		c-137.2-0.7-274.5-0.3-411.7-0.3c-27.3,0-37.6-10.2-37.6-37.2c0-77.5,0-154.9,0-232.4c0-24.6,10.2-34.9,34.9-34.9
		C111.2,98.1,180.9,98.2,250.6,98.2z M250.3,366.6c68.9,0,137.9-0.1,206.8,0.2c8.1,0,10.7-1.8,10.6-10.3
		c-0.3-71.1-0.3-142.3,0-213.4c0-8.6-2.8-10.4-10.8-10.4c-137.5,0.2-275,0.2-412.5,0c-8.6,0-11.2,2.3-11.2,11.1
		c0.4,70.4,0.4,140.8-0.1,211.2c-0.1,10.3,3.3,11.9,12.5,11.8C113.9,366.5,182.1,366.6,250.3,366.6z"/>
	<path d="M388.4,270.1c0-23.1,0-46.2,0-69.2c0-4.4-0.1-8.9,0.1-13.3c0.6-11.1,5.7-16.3,15.3-16.3c10.6,0.1,16.1,5.4,16.2,16.6
		c0.2,21.8,0.1,43.5,0.1,65.3c0,19.6-0.1,39.1,0,58.7c0.1,7.6-1.4,14.5-9.4,16.9c-7.8,2.3-15.6,1.4-21.1-5.6
		c-9.3-11.9-18.4-24-27.5-36c-14-18.3-27.9-36.6-44.1-54.2c0,23.8,0,47.6,0,71.4c0,4.1,0.2,8.2-0.4,12.1
		c-1.5,9.6-7.3,13.7-17.1,13.3c-9.5-0.4-14.7-5.2-14.8-14.3c-0.2-42.8-0.2-85.6,0.1-128.4c0-7.2,2.5-14,10.7-16.2
		c8.8-2.4,15,1.9,19.9,8.4c21.9,28.8,43.6,57.6,65.4,86.4c1.3,1.7,2.6,3.4,3.9,5.1C386.7,270.5,387.5,270.3,388.4,270.1z"/>
	<path d="M144.5,273.5c11.8-31.3,22.5-60.2,33.4-88.9c4.4-11.6,11.7-16.2,20.4-13.7c11.1,3.2,15.1,12.1,10.4,24.4
		c-13.8,36-27.9,71.8-41.9,107.8c-1.6,4.1-3.4,8.1-4.9,12.3c-2.8,8.2-6.7,14.5-16.9,14.4c-10.2-0.1-14.8-6.1-18.1-14.8
		c-12.1-31.5-24.6-62.9-36.9-94.4c-3.3-8.5-6.9-17-9.9-25.7c-3.8-11.2-0.1-20.7,8.9-24c8.7-3.2,16.9,1,21.3,12.3
		C121.7,212.3,132.5,241.5,144.5,273.5z"/>
	<path d="M258.1,250.1c0,20.3,0.1,40.5,0,60.8c0,8.9-3.2,16-12.9,17.9c-10.3,2.1-19.1-3.8-19.2-14.3c-0.4-42.7-0.4-85.5,0.1-128.2
		c0.1-10.7,7-16.8,15.6-16.5c9.7,0.3,16.1,6.4,16.3,17.3C258.4,208.1,258.1,229.1,258.1,250.1C258.1,250.1,258.1,250.1,258.1,250.1z
		"/>
</g>
</svg>
